<svg version="1.2" xmlns="http://www.w3.org/2000/svg" viewBox="0 0 75 28" width="75" height="28">
	<title>1</title>
	<style>
		.s0 { opacity: 0;fill: #ffffff } 
		.s1 { fill: #f9a31a } 
		.s2 { fill: #bf7a2a } 
		.s3 { fill: #444445 } 
		.s4 { fill: #ffffff } 
	</style>
	<g id="Layer 1">
		<path class="s0" d="m75 6v15.8l-75-0.1v-15.7z"/>
		<g id="sun">
			<path class="s1" d="m13.5 8.2c-2 0-3.9 1.2-4.6 3.1-0.8 1.8-0.4 4 1.1 5.4 1.4 1.4 3.6 1.9 5.4 1.1 1.9-0.8 3.1-2.6 3.1-4.6q0-1-0.4-2-0.3-0.9-1.1-1.6-0.7-0.7-1.6-1.1-0.9-0.3-1.9-0.3zm-3.6 3.2q-0.1 0-0.1 0-0.1 0-0.1 0 0 0-0.1-0.1 0 0 0 0-0.1-0.1-0.1-0.2 0-0.1 0.1-0.2 0 0 0.1-0.1 0.1 0 0.2 0h1.8q0.1 0 0.1 0 0 0 0.1 0 0 0 0 0.1 0.1 0 0.1 0 0 0.1 0 0.2 0 0.1 0 0.2 0 0-0.1 0.1-0.1 0-0.2 0zm0.5 1.2q0 0 0-0.1 0-0.1 0-0.2 0.1-0.1 0.1-0.1 0.1-0.1 0.2-0.1h1.9q0.1 0.1 0.2 0.1 0.1 0.1 0.1 0.3 0 0.1-0.1 0.2-0.1 0.1-0.2 0.1h-1.9q0 0-0.1 0 0 0-0.1 0 0-0.1 0-0.1-0.1 0-0.1-0.1zm6.2 0l-1.6 2.8q-0.1 0-0.1 0.1 0 0-0.1 0 0 0 0 0-0.1 0-0.1 0h-2.4q-0.1 0-0.1 0 0 0-0.1 0 0 0 0 0-0.1-0.1-0.1-0.1 0-0.1 0-0.2 0-0.1 0-0.1 0.1-0.1 0.1-0.2 0.1 0 0.2 0h1.9q0.1 0 0.1 0 0.1 0 0.1-0.1 0 0 0.1 0 0 0 0-0.1l1.5-2.4q0 0 0.1-0.1 0 0 0 0 0.1 0 0.1 0 0-0.1 0.1-0.1h0.1q0 0 0.1 0.1 0.1 0 0.2 0.1 0 0.1 0 0.2 0 0.1-0.1 0.2zm0.9-1.4q0 0-0.1 0 0 0.1 0 0.1-0.1 0-0.1 0-0.1 0-0.1 0h-1.3q-0.1 0-0.1 0 0 0.1-0.1 0.1 0 0 0 0-0.1 0.1-0.1 0.1l-1.5 2.4q0 0.1 0 0.1-0.1 0-0.1 0 0 0.1-0.1 0.1 0 0-0.1 0h-2.3q0 0-0.1 0 0 0-0.1-0.1 0 0 0 0-0.1 0-0.1-0.1 0-0.1 0-0.1 0-0.1 0-0.2 0.1-0.1 0.1-0.1 0.1-0.1 0.2-0.1h1.9q0 0 0.1 0 0 0 0 0 0.1 0 0.1-0.1 0 0 0.1 0l1.4-2.5q0.1 0 0.1 0 0-0.1 0.1-0.1 0 0 0 0 0.1 0 0.1 0h1.8q0.1 0 0.1 0 0.1 0.1 0.2 0.1 0 0.1 0 0.2 0 0.1 0 0.2z"/>
			<path class="s1" d="m13.5 8q0.1 0 0.1-0.1 0.1 0 0.1 0 0.1-0.1 0.1-0.1 0-0.1 0-0.1v-0.9q0-0.1-0.1-0.2 0-0.1-0.2-0.1-0.1 0-0.2 0.1 0 0.1 0 0.2v0.9q0 0 0 0.1 0 0 0.1 0.1 0 0 0 0 0.1 0.1 0.1 0.1z"/>
			<path class="s1" d="m17.6 9.5l0.6-0.6q0.1-0.1 0.1-0.2 0-0.1-0.1-0.2-0.1-0.1-0.2-0.1-0.1 0-0.2 0.1l-0.6 0.6q-0.1 0.1-0.1 0.2 0 0.1 0.1 0.2 0.1 0.1 0.2 0.1 0.1 0 0.2-0.1z"/>
			<path class="s1" d="m19.9 12.9h-0.9q-0.1 0-0.2 0.1-0.1 0.1-0.1 0.2 0 0.1 0.1 0.2 0.1 0.1 0.2 0.1h0.9q0.1 0 0.2-0.1 0-0.1 0-0.2 0-0.1 0-0.2-0.1-0.1-0.2-0.1z"/>
			<path class="s1" d="m17.5 16.9q0-0.1-0.1-0.1-0.2 0-0.2 0.1-0.1 0.1-0.1 0.2 0 0.1 0.1 0.1l0.6 0.7q0.1 0 0.2 0 0.1 0 0.2 0 0-0.1 0-0.2 0-0.1 0-0.2z"/>
			<path class="s1" d="m13.5 18.4q-0.1 0-0.1 0 0 0-0.1 0 0 0.1 0 0.1-0.1 0.1-0.1 0.1v0.9q0 0.1 0.1 0.2 0.1 0.1 0.2 0.1 0.1 0 0.2-0.1 0.1-0.1 0.1-0.2v-0.9q0 0-0.1-0.1 0 0 0 0-0.1-0.1-0.1-0.1 0 0-0.1 0z"/>
			<path class="s1" d="m9.4 16.8l-0.6 0.6q-0.1 0.1-0.1 0.2 0 0.1 0.1 0.2 0.1 0.1 0.2 0.1 0.1 0 0.2-0.1l0.6-0.6q0.1-0.1 0.1-0.2 0-0.1-0.1-0.2-0.1 0-0.2 0-0.1 0-0.2 0z"/>
			<path class="s1" d="m8 12.9h-0.8q-0.1 0-0.2 0.1-0.1 0-0.1 0.1 0 0.1 0.1 0.2 0.1 0.1 0.2 0.1h0.8q0.1 0 0.2-0.1 0.1-0.1 0.1-0.2 0-0.1-0.1-0.1-0.1-0.1-0.2-0.1z"/>
			<path class="s1" d="m9.5 9.5q0.1 0 0.2 0 0.1 0 0.1 0 0.1-0.1 0.1-0.2 0-0.1-0.1-0.2l-0.6-0.6q0-0.1-0.1-0.1 0 0-0.1 0 0 0-0.1 0 0 0 0 0.1-0.1 0-0.1 0.1 0 0 0 0.1 0 0 0 0.1 0 0 0.1 0z"/>
			<path class="s2" d="m16.3 12.1h-0.1q0 0-0.1 0.1 0 0 0 0-0.1 0-0.1 0 0 0.1-0.1 0.1l-1.4 2.4q-0.1 0.1-0.1 0.1 0 0 0 0.1-0.1 0-0.1 0-0.1 0-0.1 0h-2q0 0-0.1 0-0.1 0.1-0.1 0.2-0.1 0-0.1 0.1 0 0.1 0.1 0.2 0 0 0 0 0 0.1 0.1 0.1 0 0 0.1 0 0 0 0 0h2.4q0.1 0 0.1 0 0 0 0.1 0 0 0 0.1-0.1 0 0 0 0l1.7-2.8q0 0 0-0.1 0-0.1 0-0.2-0.1-0.1-0.1-0.1-0.1 0-0.2-0.1z"/>
			<path class="s2" d="m12 10.9q0 0-0.1 0 0-0.1 0-0.1-0.1 0-0.1 0 0 0-0.1 0h-1.8q-0.1 0-0.2 0-0.1 0.1-0.1 0.1-0.1 0.1-0.1 0.2 0 0.1 0.1 0.2 0 0 0 0 0.1 0.1 0.1 0.1 0 0 0.1 0 0 0 0.1 0h1.8q0.1 0 0.2 0 0.1-0.1 0.1-0.1 0-0.1 0-0.2 0-0.1 0-0.2z"/>
			<path class="s2" d="m12.8 12.3q0 0-0.1-0.1 0 0 0 0-0.1 0-0.1 0 0-0.1-0.1-0.1h-1.8q-0.1 0-0.2 0.1-0.1 0-0.1 0.1-0.1 0.1-0.1 0.2 0 0.1 0.1 0.1 0 0.1 0 0.1 0.1 0 0.1 0.1 0 0 0.1 0 0 0 0.1 0h1.8q0.1 0 0.2 0 0-0.1 0.1-0.2 0 0 0-0.1 0-0.1 0-0.2z"/>
			<path class="s2" d="m15.1 10.9l-1.5 2.5q0 0 0 0-0.1 0.1-0.1 0.1 0 0-0.1 0 0 0-0.1 0h-1.8q-0.1 0-0.2 0.1-0.1 0-0.1 0.1-0.1 0.1-0.1 0.2 0 0 0.1 0.1 0 0.1 0 0.1 0.1 0 0.1 0 0 0.1 0.1 0.1 0 0 0.1 0h2.3q0 0 0.1 0 0 0 0.1-0.1 0 0 0 0 0.1 0 0.1-0.1l1.5-2.4q0 0 0-0.1 0 0 0.1 0 0 0 0.1-0.1 0 0 0.1 0h1.3q0 0 0 0 0.1 0 0.1 0 0.1 0 0.1-0.1 0 0 0 0 0.1-0.1 0.1-0.2 0-0.1-0.1-0.2 0 0-0.1-0.1-0.1 0-0.1 0h-1.8q-0.1 0-0.1 0 0 0-0.1 0 0 0 0 0.1-0.1 0-0.1 0z"/>
		</g>
		<g id="bottom">
			<path class="s3" d="m44.3 17.1h22.4c0.2 0 0.4 0.2 0.4 0.4v3.7c0 0.2-0.2 0.4-0.4 0.4h-22.4c-0.2 0-0.4-0.2-0.4-0.4v-3.7c0-0.2 0.2-0.4 0.4-0.4z"/>
			<path class="s4" d="m44.5 20.3v-2.3h1.3v0.2h-1.1v0.8h1v0.2h-1v0.9h1.1v0.1z"/>
			<path class="s4" d="m46.4 20.3v-2.3h0.2v2.1h1.1v0.1z"/>
			<path class="s4" d="m48.1 20.3v-2.3h1.3v0.2h-1.1v0.8h1.1v0.2h-1.1v0.9h1.2v0.1z"/>
			<path class="s4" d="m51 20.3q-0.1 0-0.1 0-0.1 0-0.1 0-0.1 0-0.1-0.1-0.1 0-0.1 0-0.1 0-0.1 0-0.1-0.1-0.1-0.1-0.1 0-0.1 0-0.1-0.1-0.1-0.1 0-0.1-0.1-0.1 0 0 0-0.1-0.1 0-0.1-0.1 0 0 0-0.1-0.1 0-0.1-0.1 0-0.1 0-0.1 0-0.1 0-0.2 0 0 0-0.1 0-0.1 0-0.1 0-0.1 0-0.2 0-0.1 0.1-0.2 0 0 0-0.1 0-0.1 0.1-0.1 0-0.1 0.1-0.2 0 0 0.1-0.1 0 0 0.1 0 0.1-0.1 0.1-0.1 0.1 0 0.2-0.1 0 0 0.1 0 0.1 0 0.2 0 0.1 0 0.2 0 0 0 0.1 0.1 0.1 0 0.2 0 0.1 0.1 0.2 0.1l-0.1 0.2q-0.1-0.1-0.2-0.1 0 0-0.1 0-0.1-0.1-0.2-0.1 0 0-0.1 0-0.1 0-0.1 0-0.1 0-0.2 0 0 0.1-0.1 0.1 0 0-0.1 0 0 0.1-0.1 0.1 0 0.1-0.1 0.1 0 0 0 0.1-0.1 0.1-0.1 0.1 0 0.1 0 0.1-0.1 0.1-0.1 0.2 0 0 0 0.1 0 0.1 0 0.1 0 0.1 0 0.2 0 0.1 0.1 0.2 0 0.1 0 0.2 0.1 0.1 0.1 0.1 0.1 0.1 0.2 0.1 0 0.1 0.1 0.1 0.1 0.1 0.2 0.1 0.1 0 0.2 0 0.1 0 0.1 0 0.1 0 0.2-0.1 0.1 0 0.2 0 0.1-0.1 0.1-0.1l0.1 0.2q-0.1 0-0.2 0.1 0 0-0.1 0-0.1 0.1-0.2 0.1-0.1 0-0.2 0z"/>
			<path class="s4" d="m52.7 20.3v-2.1h-0.8v-0.2h1.8v0.2h-0.8v2z"/>
			<path class="s4" d="m54.1 20.3v-2.3h0.6q0.1 0 0.1 0 0.1 0 0.1 0 0.1 0 0.1 0 0 0 0.1 0 0 0 0 0 0.1 0 0.1 0 0 0 0.1 0.1 0 0 0 0 0 0 0.1 0 0 0.1 0 0.1 0 0 0 0 0.1 0.1 0.1 0.1 0 0 0 0.1 0 0 0 0 0 0.1 0 0.1 0 0 0 0.1 0 0 0 0.1 0 0 0 0.1 0 0 0 0.1-0.1 0-0.1 0 0 0.1-0.1 0.1 0 0 0 0.1-0.1 0-0.1 0-0.1 0-0.1 0 0 0 0 0 0 0 0 0 0 0 0.1 0.1 0 0 0 0 0 0 0 0 0 0 0 0 0 0 0 0 0.1 0 0.1 0 0 0 0 0 0 0.1 0 0.1 0 0 0 0 0 0 0 0l0.1 0.1q0 0.1 0 0.2l0.3 0.6h-0.2l-0.3-0.6q0-0.1 0-0.1-0.1-0.1-0.1-0.1 0-0.1 0-0.1 0 0 0 0 0 0 0 0 0 0 0 0l-0.1-0.1h-0.1-0.6v1zm0.2-1.2h0.5q0.1 0 0.1 0 0.1 0 0.1 0 0 0 0.1 0 0-0.1 0.1-0.1 0 0 0-0.1 0.1 0 0.1 0 0-0.1 0-0.1 0-0.1 0-0.1 0 0 0-0.1 0 0 0 0 0 0 0-0.1 0 0 0 0 0 0 0-0.1-0.1 0-0.1 0 0 0 0 0 0 0 0 0 0-0.1-0.1-0.1 0 0 0 0 0 0 0 0 0 0-0.1 0 0 0 0 0 0 0-0.1 0 0 0 0 0-0.1 0-0.1 0h-0.5z"/>
			<path class="s4" d="m57.2 20.3q-0.2 0-0.3 0-0.1 0-0.2-0.1-0.1 0-0.2-0.1-0.1-0.1-0.1-0.1-0.2-0.2-0.3-0.4 0-0.3 0-0.5 0-0.2 0-0.4 0.1-0.3 0.3-0.4 0-0.1 0.1-0.2 0.1-0.1 0.2-0.1 0.1 0 0.2-0.1 0.1 0 0.3 0 0 0 0.1 0 0.1 0 0.2 0.1 0 0 0.1 0 0.1 0 0.1 0.1 0.1 0 0.1 0.1 0.1 0 0.1 0.1 0.1 0 0.1 0.1 0.1 0 0.1 0.1 0 0.1 0.1 0.1 0 0.1 0 0.2 0 0.1 0 0.2 0 0 0 0.1 0 0.1 0 0.3 0 0.1 0 0.2-0.1 0.1-0.1 0.2-0.1 0.1-0.2 0.2 0 0.1-0.1 0.1-0.1 0.1-0.2 0.1-0.1 0.1-0.2 0.1-0.1 0-0.2 0zm0-0.2q0 0 0.1 0 0.1 0 0.2-0.1 0.1 0 0.1-0.1 0.1 0 0.2-0.1 0.1-0.1 0.1-0.3 0.1-0.2 0.1-0.4 0-0.2-0.1-0.4 0-0.2-0.2-0.3 0-0.1-0.1-0.1 0-0.1-0.1-0.1-0.1-0.1-0.2-0.1-0.1 0-0.2 0 0 0-0.1 0-0.1 0-0.2 0.1-0.1 0-0.2 0.1 0 0-0.1 0.1 0 0.1-0.1 0.1 0 0.1-0.1 0.2 0 0.1 0 0.2 0 0.1 0 0.2 0 0.1 0 0.2 0 0.1 0 0.2 0.1 0.1 0.1 0.2 0.1 0 0.1 0.1 0.1 0.1 0.2 0.1 0 0.1 0.1 0.1 0.1 0.1 0.2 0.1 0.1 0 0.2 0z"/>
			<path class="s4" d="m59.2 20.3v-2.1h-0.8v-0.2h1.8v0.2h-0.8v2z"/>
			<path class="s4" d="m60.6 20.3v-2.3h1.3v0.2h-1.1v0.8h1v0.2h-1v0.9h1.1v0.1z"/>
			<path class="s4" d="m63.4 20.3q0 0-0.1 0 0 0-0.1 0 0 0-0.1-0.1 0 0-0.1 0 0 0-0.1 0 0-0.1-0.1-0.1 0 0-0.1 0 0-0.1-0.1-0.1 0-0.1 0-0.1-0.1 0-0.1-0.1 0 0 0-0.1-0.1 0-0.1-0.1 0 0 0-0.1 0-0.1-0.1-0.1 0-0.1 0-0.2 0 0 0-0.1 0-0.1 0-0.1 0-0.1 0.1-0.2 0-0.1 0-0.2 0 0 0.1-0.1 0-0.1 0-0.1 0.1-0.1 0.1-0.2 0.1 0 0.1-0.1 0.1 0 0.1 0 0.1-0.1 0.2-0.1 0.1 0 0.1 0 0.1-0.1 0.2-0.1 0.1 0 0.1 0 0.1 0 0.2 0 0.1 0 0.2 0.1 0.1 0 0.2 0 0 0.1 0.1 0.1l-0.1 0.2q0-0.1-0.1-0.1-0.1 0-0.2 0 0-0.1-0.1-0.1-0.1 0-0.2 0-0.1 0-0.2 0-0.1 0.1-0.2 0.1-0.1 0.1-0.2 0.2-0.1 0.1-0.1 0.2-0.1 0.1-0.1 0.1 0 0.1 0 0.2 0 0 0 0.1 0 0.1 0 0.1-0.1 0.1 0 0.2 0 0.1 0 0.2 0 0.1 0.1 0.2 0 0 0.1 0.1 0.1 0.1 0.1 0.1 0.1 0.1 0.2 0.1 0.1 0.1 0.2 0.1 0 0 0.1 0 0.1 0 0.2 0 0.1 0 0.2-0.1 0.1 0 0.2 0 0-0.1 0.1-0.1l0.1 0.2q-0.1 0-0.2 0.1-0.1 0-0.2 0-0.1 0.1-0.2 0.1-0.1 0-0.2 0z"/>
			<path class="s4" d="m64.7 20.3v-2.3h0.2v1h1.4v-1h0.2v2.2h-0.2v-1h-1.4v1z"/>
			<path id="line" class="s3" d="m42.7 19.3v0.1h-21.3v-0.1z"/>
		</g>
		<path class="s3" d="m24.2 16.3l-2.5-5.8q-0.1-0.3-0.2-0.6 0-0.1-0.1-0.1 0-0.1 0-0.2 0 0 0-0.1 0-0.1 0-0.1h-0.3-0.3v-0.7h2.9v0.6q-0.1 0-0.2 0 0 0-0.1 0-0.1 0.1-0.2 0.1 0 0.1-0.1 0.1-0.2 0.2 0 0.7 0.3 0.6 0.5 1.2l0.5 1.3q0.2 0.5 0.4 0.9 0.2 0.4 0.3 0.8l0.3-0.7q0.1-0.4 0.2-0.8 0.2-0.6 0.4-1 0.2-0.5 0.3-0.9 0.2-0.4 0.3-0.7 0.1-0.2 0.2-0.5 0-0.1 0-0.1 0-0.1 0.1-0.1 0-0.1 0-0.1 0.1-0.1 0.1-0.1h-0.4q-0.3 0-0.4 0v-0.7h2.3v0.6q-0.1 0-0.2 0-0.1 0-0.2 0.1-0.1 0-0.1 0-0.1 0.1-0.2 0.1-0.1 0.1-0.1 0.2-0.1 0.1-0.2 0.2 0 0.2-0.1 0.3 0 0.1-0.1 0.2-0.1 0.3-0.2 0.7l-0.3 0.7q-0.1 0.4-0.3 0.9-0.2 0.4-0.4 1l-0.4 1.1-0.5 1.5z"/>
		<path class="s3" d="m28.2 16.2v-0.6q0.1 0 0.2 0 0 0 0.1-0.1 0.1 0 0.1 0 0.1 0 0.1-0.1 0.1 0 0.1-0.1 0.1 0 0.1-0.1 0-0.1 0.1-0.1 0-0.1 0-0.1 0.1-0.3 0.3-0.7l2.1-5.8h0.6l2.3 5.9q0.1 0.2 0.2 0.5 0 0.1 0 0.2 0 0.1 0 0.1 0.1 0.1 0.1 0.2 0 0 0 0.1h0.3q0.2 0 0.3 0v0.7h-2.7v-0.6q0.1 0 0.1 0 0.1 0 0.1 0 0.1 0 0.2-0.1 0 0 0.1 0 0-0.1 0-0.1 0-0.1 0-0.1 0.1-0.1 0.1-0.1 0-0.1 0-0.1 0-0.1-0.1-0.1 0-0.1 0-0.1 0-0.1 0-0.2 0 0-0.1-0.1l-0.2-0.7h-2.5l-0.2 0.8q-0.1 0.1-0.2 0.4-0.1 0.2-0.2 0.4h0.5 0.3v0.7zm2.2-2.9h2l-0.5-1.6q-0.2-0.3-0.3-0.7c0-0.3-0.1-0.5-0.2-0.7q0 0.2-0.1 0.6-0.1 0.3-0.3 0.7z"/>
		<path class="s3" d="m36.6 16.2v-0.6q0 0 0.1 0 0.1 0 0.1 0 0.1 0 0.1 0 0.1-0.1 0.1-0.1 0.1 0 0.1-0.1 0.1 0 0.1 0 0-0.1 0-0.1 0.1-0.1 0.1-0.1 0-0.1 0-0.2 0-0.1 0-0.1 0-0.1 0-0.2 0-0.1 0-0.2v-4.2q0-0.3 0-0.5 0-0.3 0.1-0.4h-0.4q-0.3 0-0.4 0v-0.7h1.4 1.4q0.2 0 0.4 0 0.3 0 0.5 0 0.2 0.1 0.4 0.1 0.2 0.1 0.4 0.1 0.1 0.1 0.3 0.1 0.1 0.1 0.3 0.2 0.1 0.1 0.2 0.2 0.1 0.1 0.2 0.2 0.1 0.2 0.2 0.3 0 0.2 0.1 0.3 0 0.2 0 0.3 0.1 0.2 0 0.4 0 0.1 0 0.2 0 0.1 0 0.2 0 0.1-0.1 0.2 0 0.1-0.1 0.2 0 0.1-0.1 0.2 0 0.2-0.1 0.2-0.1 0.1-0.2 0.2-0.1 0.1-0.2 0.2-0.1 0.1-0.2 0.2-0.2 0-0.3 0.1-0.1 0.1-0.3 0.1-0.1 0.1-0.3 0.1 0.1 0 0.1 0.1 0.1 0 0.1 0 0.1 0.1 0.1 0.1 0 0.1 0.1 0.1 0 0 0.1 0.1 0 0.1 0.1 0.1 0 0.1 0.1 0.1 0 0.1 0 0.1l0.6 0.9q0.1 0.1 0.1 0.2 0 0 0.1 0.1 0 0.1 0.1 0.2 0.1 0 0.1 0.1 0 0 0.1 0.1 0 0 0.1 0.1 0 0 0.1 0 0 0.1 0.1 0.1 0 0 0.1 0.1 0 0 0.1 0 0.1 0 0.1 0 0.1 0 0.1 0v0.6h-1.6q0 0-0.1-0.1-0.1 0-0.1-0.1-0.1 0-0.1-0.1-0.1-0.1-0.1-0.1-0.2-0.3-0.4-0.6l-0.8-1.3q-0.1-0.2-0.3-0.4 0 0 0-0.1 0 0-0.1-0.1 0 0-0.1-0.1 0 0 0 0h-0.3-0.3v1.4q0 0.3 0 0.6 0 0 0 0.1 0 0 0 0.1-0.1 0-0.1 0.1 0 0 0 0h0.3 0.3 0.3v0.7zm2.7-3.7q0.1 0 0.2 0 0.1 0 0.3 0 0.1 0 0.2-0.1 0.1 0 0.2 0 0.1-0.1 0.2-0.1 0.1-0.1 0.2-0.2 0.1 0 0.1-0.1 0.1-0.1 0.1-0.2 0.1-0.1 0.1-0.2 0.1-0.1 0.1-0.2 0-0.1 0-0.3 0-0.1 0-0.2 0-0.1 0-0.2 0-0.1 0-0.2 0-0.1 0-0.2-0.1-0.1-0.1-0.2 0-0.1-0.1-0.1 0-0.1-0.1-0.1 0-0.1-0.1-0.2 0 0-0.1 0 0-0.1-0.1-0.1-0.1-0.1-0.1-0.1-0.1 0-0.2 0 0-0.1-0.1-0.1-0.1 0-0.2 0 0 0-0.1 0-0.1 0-0.1 0-0.1 0-0.2 0 0 0-0.1 0 0 0-0.1 0-0.1 0-0.1 0-0.1 0-0.1 0.1-0.1 0-0.1 0 0 0.1-0.1 0.1 0 0 0 0.1 0 0 0 0.1 0 0-0.1 0.1 0 0.1 0 0.2 0 0 0 0.1 0 0.1 0 0.2v2.1h0.3q0.1 0 0.3 0z"/>
		<path class="s3" d="m48.8 11.1q0-0.2 0-0.3-0.1-0.1-0.1-0.3 0-0.1-0.1-0.2 0-0.1-0.1-0.2 0-0.1-0.1-0.2-0.1-0.1-0.2-0.2 0-0.1-0.1-0.2-0.1 0-0.2-0.1-0.1 0-0.2-0.1-0.2 0-0.3-0.1-0.1 0-0.2 0-0.1 0-0.3 0-0.1 0-0.2 0-0.1 0-0.2 0.1-0.1 0-0.2 0-0.1 0.1-0.2 0.2-0.1 0.1-0.2 0.1 0 0.1-0.1 0.2 0 0.1-0.1 0.2 0 0.1 0 0.2 0 0.1 0 0.2 0 0.1 0.1 0.2 0 0 0 0.1 0.1 0.1 0.1 0.2 0.1 0 0.2 0.1 0 0.1 0.1 0.1 0.1 0.1 0.2 0.2 0.1 0 0.1 0.1 0.2 0 0.3 0.1 0.1 0 0.2 0.1 0.1 0 0.2 0.1 0.2 0.1 0.3 0.1 0.4 0.2 0.8 0.4 0.1 0 0.2 0.1 0.1 0 0.2 0.1 0.1 0.1 0.2 0.1 0.1 0.1 0.2 0.2 0.1 0 0.1 0.1 0.1 0.1 0.2 0.2 0.1 0.1 0.1 0.2 0.1 0.1 0.1 0.1 0.1 0.1 0.1 0.3 0.1 0.1 0.1 0.2 0 0.1 0.1 0.2 0 0.1 0 0.3 0 0.1 0 0.2-0.1 0.2-0.1 0.3 0 0.2-0.1 0.3-0.1 0.1-0.2 0.3 0 0.1-0.1 0.2-0.1 0.1-0.3 0.2-0.1 0.1-0.2 0.2-0.1 0-0.3 0.1-0.1 0.1-0.3 0.1-0.2 0.1-0.4 0.1-0.1 0-0.3 0.1-0.2 0-0.4 0-0.1 0-0.2 0-0.2 0-0.3-0.1-0.1 0-0.2 0-0.1 0-0.2-0.1-0.2 0-0.3 0-0.1-0.1-0.2-0.1-0.1-0.1-0.2-0.1-0.2-0.1-0.3-0.2l0.1 0.5h-0.8v-2.4h0.6q0.1 0.2 0.1 0.4 0.1 0.2 0.1 0.3 0.1 0.2 0.2 0.4 0.2 0.1 0.3 0.3 0.2 0.1 0.3 0.2 0.2 0 0.3 0.1 0.2 0.1 0.4 0.1 0.2 0 0.4 0 0 0 0.1 0 0.1 0 0.2 0 0.1 0 0.2-0.1 0.1 0 0.2 0 0-0.1 0.1-0.1 0.1-0.1 0.1-0.1 0.1-0.1 0.1-0.1 0.1-0.1 0.1-0.1 0.1-0.1 0.1-0.2 0.1 0 0.1-0.1 0-0.1 0-0.2 0 0 0-0.1 0-0.1 0-0.2 0-0.1 0-0.2-0.1-0.1-0.1-0.1-0.1-0.1-0.1-0.2-0.1-0.1-0.2-0.1-0.1-0.1-0.1-0.2-0.1 0-0.2-0.1-0.1 0-0.2-0.1-0.4-0.1-0.8-0.3c-0.3-0.2-0.6-0.3-0.9-0.5q-0.1 0-0.2-0.1-0.1 0-0.2-0.1-0.1-0.1-0.2-0.1-0.1-0.1-0.2-0.2-0.1-0.1-0.1-0.1-0.1-0.1-0.2-0.2 0-0.1-0.1-0.2 0-0.1-0.1-0.2-0.1-0.2-0.1-0.3-0.1-0.2-0.1-0.4 0-0.2 0-0.4 0.1-0.2 0.1-0.4 0.1-0.1 0.1-0.2 0-0.1 0.1-0.2 0-0.1 0.1-0.1 0-0.1 0.1-0.2 0.1-0.1 0.2-0.1 0.1-0.1 0.1-0.2 0.1 0 0.2-0.1 0.1 0 0.3-0.1 0.1 0 0.2-0.1 0.2 0 0.3 0 0.1-0.1 0.3-0.1 0.1 0 0.3 0 0.1 0 0.2 0 0.1 0 0.2 0.1 0.2 0 0.3 0 0.1 0 0.2 0.1 0.1 0 0.2 0 0.2 0.1 0.3 0.1 0.1 0.1 0.2 0.1 0.1 0.1 0.2 0.2v-0.5h0.7v2.5z"/>
		<path class="s3" d="m54.2 9.3q0 0-0.1 0 0 0-0.1 0-0.1 0-0.1 0-0.1 0.1-0.1 0.1-0.1 0-0.1 0 0 0.1-0.1 0.1 0 0 0 0.1 0 0-0.1 0.1 0 0 0 0.1 0 0.1 0 0.1 0 0.1 0 0.2 0 0 0 0.1v2.9q0 0.1 0 0.2 0 0.2 0 0.3 0 0.2 0 0.3 0.1 0.1 0.1 0.3 0 0.1 0.1 0.2 0 0.1 0 0.2 0.1 0.1 0.2 0.2 0 0.1 0.1 0.2 0 0.1 0.1 0.1 0.1 0.1 0.1 0.2 0.1 0 0.2 0.1 0.1 0 0.2 0.1 0.1 0 0.1 0 0.1 0.1 0.3 0.1 0.1 0 0.2 0 0.1 0 0.2 0 0.1 0 0.2 0 0.2 0 0.3 0 0.2-0.1 0.3-0.1 0.1-0.1 0.3-0.1 0.1-0.1 0.2-0.2 0.1-0.1 0.2-0.2 0-0.1 0.1-0.2 0.1-0.2 0.1-0.3 0.1-0.2 0.1-0.3 0.1-0.2 0.1-0.4 0-0.1 0-0.3 0-0.2 0-0.4v-2.8q0-0.3 0-0.5 0.1-0.3 0.1-0.4h-0.4q-0.3 0-0.4 0v-0.7h2.3v0.6q-0.1 0-0.1 0-0.1 0-0.1 0-0.1 0-0.1 0-0.1 0.1-0.2 0.1 0 0 0 0.1-0.1 0-0.1 0 0 0.1-0.1 0.1 0 0.1 0 0.1 0 0.1 0 0.2 0 0 0 0.1 0 0.1-0.1 0.2 0 0.1 0 0.1v2.7q0.1 0.2 0 0.3 0 0.2 0 0.4 0 0.2-0.1 0.4 0 0.2-0.1 0.4 0 0.1-0.1 0.2 0 0.2-0.1 0.3-0.1 0.1-0.1 0.3-0.1 0.1-0.2 0.2-0.1 0.1-0.2 0.2-0.1 0.1-0.3 0.2-0.1 0.1-0.2 0.1-0.1 0.1-0.3 0.2-0.1 0-0.3 0.1-0.1 0-0.3 0-0.1 0-0.3 0.1-0.1 0-0.3 0-0.2 0-0.4 0-0.2-0.1-0.4-0.1-0.1 0-0.3-0.1-0.2 0-0.4-0.1-0.1 0-0.3-0.1-0.1-0.1-0.2-0.2-0.1-0.1-0.2-0.2-0.1-0.1-0.2-0.2-0.1-0.1-0.2-0.2-0.1-0.2-0.1-0.3-0.1-0.2-0.1-0.3-0.1-0.1-0.1-0.3-0.1-0.2-0.1-0.3 0-0.2 0-0.4 0-0.2-0.1-0.4 0-0.1 0-0.3v-2.5q0-0.3 0.1-0.6c0-0.2 0-0.3 0-0.4h-0.5q-0.2 0-0.3 0v-0.7h2.8z"/>
		<path class="s3" d="m66.3 16.3l-3.7-4.8q-0.1-0.2-0.3-0.4l-0.2-0.3v3.7q0 0.3 0 0.6 0 0.2 0 0.4h0.4q0.2 0 0.4 0v0.7h-2.3v-0.6q0 0 0.1 0 0 0 0.1 0 0 0 0.1 0 0.1-0.1 0.1-0.1 0 0 0.1 0 0-0.1 0-0.1 0.1 0 0.1-0.1 0 0 0-0.1 0.1 0 0.1-0.1 0-0.1 0-0.1 0-0.1 0-0.2 0 0 0-0.1v-4.4q0-0.3 0-0.5 0-0.3 0-0.4h-0.4q-0.2 0-0.4 0v-0.7h1.6l3.5 4.6q0.2 0.2 0.4 0.5l0.3 0.4v-3.9q0-0.3 0-0.5 0-0.3 0-0.4h-0.4q-0.2 0-0.4 0v-0.7h2.3v0.6q0 0-0.1 0-0.1 0-0.1 0-0.1 0-0.1 0-0.1 0.1-0.1 0.1-0.1 0-0.1 0.1-0.1 0-0.1 0 0 0.1 0 0.1-0.1 0.1-0.1 0.1 0 0.1 0 0.2 0 0 0 0.1 0 0.1 0 0.2 0 0.1 0 0.1v6z"/>
	</g>
</svg>